mtllib ./main_ridge_0.mtl
g Cube
v -0.3257801 0.8889287 0.6285223
v -0.3257801 1.563071 0.6285223
v 0.3257801 1.563071 0.6285223
v 0.3257801 0.8889287 0.6285223
v -0.3257801 1.563071 0.6285223
v -0.3257801 1.563071 -0.6902166
v 0.3257801 1.563071 -0.6902166
v 0.3257801 1.563071 0.6285223
v -0.3257801 1.563071 -0.6902166
v -0.3257801 0.8889287 -0.6902166
v 0.3257801 0.8889287 -0.6902166
v 0.3257801 1.563071 -0.6902166
v -0.3257801 0.8889287 -0.6902166
v -0.3257801 0.8889287 0.6285223
v 0.3257801 0.8889287 0.6285223
v 0.3257801 0.8889287 -0.6902166
v 0.3257801 0.8889287 0.6285223
v 0.3257801 1.563071 0.6285223
v 0.3257801 1.563071 -0.6902166
v 0.3257801 0.8889287 -0.6902166
v -0.3257801 0.8889287 -0.6902166
v -0.3257801 1.563071 -0.6902166
v -0.3257801 1.563071 0.6285223
v -0.3257801 0.8889287 0.6285223

vn 0 0 1
vn 0 0 1
vn 0 0 1
vn 0 0 1
vn 0 1 0
vn 0 1 0
vn 0 1 0
vn 0 1 0
vn 0 0 -1
vn 0 0 -1
vn 0 0 -1
vn 0 0 -1
vn 0 -1 0
vn 0 -1 0
vn 0 -1 0
vn 0 -1 0
vn 1 0 0
vn 1 0 0
vn 1 0 0
vn 1 0 0
vn -1 0 0
vn -1 0 0
vn -1 0 0
vn -1 0 0

vt 0 0
vt 0 1
vt 1 1
vt 1 0
vt 0 0
vt 0 1
vt 1 1
vt 1 0
vt 0 0
vt 0 1
vt 1 1
vt 1 0
vt 0 0
vt 0 1
vt 1 1
vt 1 0
vt 0 0
vt 0 1
vt 1 1
vt 1 0
vt 0 0
vt 0 1
vt 1 1
vt 1 0

usemtl ddra
usemap ddra
f 2/2/2 1/1/1 3/3/3
f 3/3/3 1/1/1 4/4/4
f 6/6/6 5/5/5 7/7/7
f 7/7/7 5/5/5 8/8/8
f 10/10/10 9/9/9 11/11/11
f 11/11/11 9/9/9 12/12/12
f 14/14/14 13/13/13 15/15/15
f 15/15/15 13/13/13 16/16/16
f 18/18/18 17/17/17 19/19/19
f 19/19/19 17/17/17 20/20/20
f 22/22/22 21/21/21 23/23/23
f 23/23/23 21/21/21 24/24/24
g Cylinder01
v 0.6562499 0.4691091 0.6999999
v 0.5027174 0.8065731 0.6999999
v 0.6166724 0.648671 0.6999999
v 0.1139565 0.9861351 0.6999999
v 0.328125 0.9237741 0.6999999
v -0.328125 0.9237741 0.6999999
v -0.1139569 0.9861351 0.6999999
v -0.6166724 0.648671 0.6999999
v -0.5027174 0.8065731 0.6999999
v -0.6562499 0.4691091 0.6999999
v 0.6562499 -0.9858909 0.6999999
v -0.6562499 -0.9858909 0.6999999
v 0.6562499 0.4691091 0.6999999
v 0.6166724 0.648671 0.4199999
v 0.6562499 0.4691091 0.4199999
v 0.6166724 0.648671 0.6999999
v 0.5027174 0.8065731 0.4199999
v 0.6166724 0.648671 0.14
v 0.5027174 0.8065731 0.14
v 0.5027174 0.8065731 0.6999999
v 0.328125 0.9237741 0.4199999
v 0.328125 0.9237741 0.14
v 0.328125 0.9237741 0.6999999
v 0.1139565 0.9861351 0.4199999
v 0.1139565 0.9861351 0.14
v 0.328125 0.9237741 -0.14
v 0.1139565 0.9861351 -0.14
v -0.1139569 0.9861351 0.14
v -0.1139569 0.9861351 -0.14
v 0.1139565 0.9861351 0.6999999
v -0.1139569 0.9861351 0.4199999
v -0.328125 0.9237741 0.14
v -0.328125 0.9237741 -0.14
v -0.1139569 0.9861351 -0.4199999
v -0.328125 0.9237741 -0.4199999
v -0.5027174 0.8065731 -0.14
v -0.5027174 0.8065731 -0.4199999
v -0.328125 0.9237741 0.4199999
v -0.5027174 0.8065731 0.14
v -0.6166724 0.648671 -0.14
v -0.6166724 0.648671 -0.4199999
v -0.5027174 0.8065731 -0.6999999
v -0.6166724 0.648671 -0.6999999
v -0.6562499 0.4691091 -0.4199999
v -0.6562499 0.4691091 -0.6999999
v -0.6166724 0.648671 0.14
v -0.6562499 0.4691091 -0.14
v -0.5027174 0.8065731 0.4199999
v -0.6166724 0.648671 0.4199999
v -0.6562499 0.4691091 0.14
v -0.328125 0.9237741 0.6999999
v -0.5027174 0.8065731 0.6999999
v -0.6166724 0.648671 0.6999999
v -0.6562499 0.4691091 0.4199999
v -0.6562499 0.4691091 0.6999999
v -0.1139569 0.9861351 0.6999999
v 0.6562499 -0.9858909 -0.6999999
v 0.6562499 -0.9858909 0.6999999
v 0.6562499 0.4691091 -0.6999999
v -0.328125 0.9237741 -0.6999999
v -0.1139569 0.9861351 -0.6999999
v 0.1139565 0.9861351 -0.4199999
v 0.1139565 0.9861351 -0.6999999
v 0.328125 0.9237741 -0.4199999
v 0.328125 0.9237741 -0.6999999
v 0.5027174 0.8065731 -0.14
v 0.5027174 0.8065731 -0.4199999
v 0.6166724 0.648671 -0.14
v 0.6166724 0.648671 -0.4199999
v 0.5027174 0.8065731 -0.6999999
v 0.6562499 0.4691091 0.14
v 0.6562499 0.4691091 -0.14
v 0.6562499 0.4691091 -0.4199999
v 0.6166724 0.648671 -0.6999999
v 0.6562499 0.4691091 -0.6999999
v -0.6562499 0.4691091 -0.6999999
v -0.5027174 0.8065731 -0.6999999
v -0.6166724 0.648671 -0.6999999
v -0.1139569 0.9861351 -0.6999999
v -0.328125 0.9237741 -0.6999999
v 0.328125 0.9237741 -0.6999999
v 0.6166724 0.648671 -0.6999999
v 0.6562499 0.4691091 -0.6999999
v 0.1139565 0.9861351 -0.6999999
v 0.5027174 0.8065731 -0.6999999
v -0.6562499 -0.9858909 -0.6999999
v 0.6562499 -0.9858909 -0.6999999
v 0.6562499 -0.9858909 -0.6999999
v -0.6562499 -0.9858909 0.6999999
v 0.6562499 -0.9858909 0.6999999
v -0.6562499 -0.9858909 -0.6999999
v -0.6562499 0.4691091 -0.6999999
v -0.6562499 -0.9858909 0.6999999
v -0.6562499 -0.9858909 -0.6999999
v -0.6562499 0.4691091 0.6999999

vn 0 0 1
vn 0 0 1
vn 0 0 1
vn 0 0 1
vn 0 0 1
vn 0 0 1
vn 0 0 1
vn 0 0 1
vn 0 0 1
vn 0 0 1
vn 0 0 1
vn 0 0 1
vn 0.9961947 0.08715598 0
vn 0.9396926 0.3420199 0
vn 0.9848078 0.173648 0
vn 0.9180058 0.3965669 0
vn 0.7660441 0.6427881 0
vn 0.9396926 0.3420199 0
vn 0.7660441 0.6427881 0
vn 0.72701 0.6866269 0
vn 0.5000002 0.8660253 0
vn 0.5000002 0.8660253 0
vn 0.4483252 0.8938705 0
vn 0.173648 0.9848078 0
vn 0.173648 0.9848078 0
vn 0.5000002 0.8660253 0
vn 0.173648 0.9848078 0
vn -0.1736489 0.9848076 0
vn -0.1736489 0.9848076 0
vn 0.115565 0.9932998 0
vn -0.1736489 0.9848076 0
vn -0.5000002 0.8660253 0
vn -0.5000002 0.8660253 0
vn -0.1736489 0.9848076 0
vn -0.5000002 0.8660253 0
vn -0.7660441 0.6427881 0
vn -0.7660441 0.6427881 0
vn -0.5000002 0.8660253 0
vn -0.7660441 0.6427881 0
vn -0.9396926 0.3420199 0
vn -0.9396926 0.3420199 0
vn -0.72701 0.6866269 0
vn -0.9180058 0.3965669 0
vn -0.9848078 0.173648 0
vn -0.9848078 0.173648 0
vn -0.9396926 0.3420199 0
vn -0.9848078 0.173648 0
vn -0.7660441 0.6427881 0
vn -0.9396926 0.3420199 0
vn -0.9848078 0.173648 0
vn -0.5499521 0.8351962 0
vn -0.80244 0.5967329 0
vn -0.9581416 0.2862948 0
vn -0.9848078 0.173648 0
vn -0.9848078 0.173648 0
vn -0.2311321 0.9729224 0
vn 1 0 0
vn 1 0 0
vn 1 0 0
vn -0.4483248 0.8938707 0
vn -0.115567 0.9932997 0
vn 0.173648 0.9848078 0
vn 0.2311321 0.9729224 0
vn 0.5000002 0.8660253 0
vn 0.5499521 0.8351962 0
vn 0.7660441 0.6427881 0
vn 0.7660441 0.6427881 0
vn 0.9396926 0.3420199 0
vn 0.9396926 0.3420199 0
vn 0.80244 0.5967329 0
vn 0.9848078 0.173648 0
vn 0.9848078 0.173648 0
vn 0.9848078 0.173648 0
vn 0.9581416 0.2862948 0
vn 0.9848078 0.173648 0
vn 0 0 -1
vn 0 0 -1
vn 0 0 -1
vn 0 0 -1
vn 0 0 -1
vn 0 0 -1
vn 0 0 -1
vn 0 0 -1
vn 0 0 -1
vn 0 0 -1
vn 0 0 -1
vn 0 0 -1
vn 0 -1 0
vn 0 -1 0
vn 0 -1 0
vn 0 -1 0
vn -1 0 0
vn -1 0 0
vn -1 0 0
vn -1 0 0

vt 0 0
vt 0 0
vt 0 0
vt 0 0
vt 0 0
vt 0 0
vt 0 0
vt 0 0
vt 0 0
vt 0 0
vt 0 0
vt 0 0
vt 0 0
vt 0 0
vt 0 0
vt 0 0
vt 0 0
vt 0 0
vt 0 0
vt 0 0
vt 0 0
vt 0 0
vt 0 0
vt 0 0
vt 0 0
vt 0 0
vt 0 0
vt 0 0
vt 0 0
vt 0 0
vt 0 0
vt 0 0
vt 0 0
vt 0 0
vt 0 0
vt 0 0
vt 0 0
vt 0 0
vt 0 0
vt 0 0
vt 0 0
vt 0 0
vt 0 0
vt 0 0
vt 0 0
vt 0 0
vt 0 0
vt 0 0
vt 0 0
vt 0 0
vt 0 0
vt 0 0
vt 0 0
vt 0 0
vt 0 0
vt 0 0
vt 0 0
vt 0 0
vt 0 0
vt 0 0
vt 0 0
vt 0 0
vt 0 0
vt 0 0
vt 0 0
vt 0 0
vt 0 0
vt 0 0
vt 0 0
vt 0 0
vt 0 0
vt 0 0
vt 0 0
vt 0 0
vt 0 0
vt 0 0
vt 0 0
vt 0 0
vt 0 0
vt 0 0
vt 0 0
vt 0 0
vt 0 0
vt 0 0
vt 0 0
vt 0 0
vt 0 0
vt 0 0
vt 0 0
vt 0 0
vt 0 0
vt 0 0
vt 0 0
vt 0 0
vt 0 0

usemtl ridgeskin
usemap ridgeskin
f 26/26/26 25/25/25 27/27/27
f 26/26/26 28/28/28 25/25/25
f 26/26/26 29/29/29 28/28/28
f 25/25/25 28/28/28 30/30/30
f 30/30/30 28/28/28 31/31/31
f 25/25/25 30/30/30 32/32/32
f 32/32/32 30/30/30 33/33/33
f 25/25/25 32/32/32 34/34/34
f 34/34/34 35/35/35 25/25/25
f 35/35/35 34/34/34 36/36/36
f 38/38/38 37/37/37 39/39/39
f 37/37/37 38/38/38 40/40/40
f 41/41/41 40/40/40 38/38/38
f 39/39/39 42/42/42 38/38/38
f 43/43/43 38/38/38 42/42/42
f 38/38/38 43/43/43 41/41/41
f 40/40/40 41/41/41 44/44/44
f 45/45/45 44/44/44 41/41/41
f 46/46/46 41/41/41 43/43/43
f 41/41/41 46/46/46 45/45/45
f 44/44/44 45/45/45 47/47/47
f 48/48/48 47/47/47 45/45/45
f 49/49/49 45/45/45 46/46/46
f 45/45/45 49/49/49 48/48/48
f 43/43/43 50/50/50 46/46/46
f 51/51/51 46/46/46 50/50/50
f 46/46/46 51/51/51 49/49/49
f 52/52/52 48/48/48 49/49/49
f 53/53/53 49/49/49 51/51/51
f 49/49/49 53/53/53 52/52/52
f 47/47/47 48/48/48 54/54/54
f 55/55/55 54/54/54 48/48/48
f 48/48/48 52/52/52 55/55/55
f 56/56/56 55/55/55 52/52/52
f 57/57/57 52/52/52 53/53/53
f 52/52/52 57/57/57 56/56/56
f 51/51/51 58/58/58 53/53/53
f 59/59/59 53/53/53 58/58/58
f 53/53/53 59/59/59 57/57/57
f 60/60/60 56/56/56 57/57/57
f 61/61/61 57/57/57 59/59/59
f 57/57/57 61/61/61 60/60/60
f 55/55/55 56/56/56 62/62/62
f 63/63/63 62/62/62 56/56/56
f 56/56/56 60/60/60 63/63/63
f 64/64/64 63/63/63 60/60/60
f 65/65/65 60/60/60 61/61/61
f 60/60/60 65/65/65 64/64/64
f 59/59/59 66/66/66 61/61/61
f 67/67/67 61/61/61 66/66/66
f 61/61/61 67/67/67 65/65/65
f 68/68/68 64/64/64 65/65/65
f 69/69/69 65/65/65 67/67/67
f 65/65/65 69/69/69 68/68/68
f 63/63/63 64/64/64 70/70/70
f 71/71/71 70/70/70 64/64/64
f 64/64/64 68/68/68 71/71/71
f 70/70/70 72/72/72 63/63/63
f 62/62/62 63/63/63 72/72/72
f 72/72/72 70/70/70 73/73/73
f 74/74/74 73/73/73 70/70/70
f 70/70/70 71/71/71 74/74/74
f 72/72/72 75/75/75 62/62/62
f 75/75/75 72/72/72 76/76/76
f 73/73/73 76/76/76 72/72/72
f 76/76/76 73/73/73 77/77/77
f 78/78/78 77/77/77 73/73/73
f 73/73/73 74/74/74 78/78/78
f 77/77/77 78/78/78 79/79/79
f 80/80/80 62/62/62 75/75/75
f 62/62/62 80/80/80 55/55/55
f 54/54/54 55/55/55 80/80/80
f 81/81/81 37/37/37 82/82/82
f 37/37/37 81/81/81 83/83/83
f 66/66/66 59/59/59 84/84/84
f 58/58/58 84/84/84 59/59/59
f 84/84/84 58/58/58 85/85/85
f 86/86/86 85/85/85 58/58/58
f 58/58/58 51/51/51 86/86/86
f 85/85/85 86/86/86 87/87/87
f 50/50/50 86/86/86 51/51/51
f 86/86/86 50/50/50 88/88/88
f 88/88/88 87/87/87 86/86/86
f 87/87/87 88/88/88 89/89/89
f 90/90/90 88/88/88 50/50/50
f 88/88/88 90/90/90 91/91/91
f 91/91/91 89/89/89 88/88/88
f 50/50/50 43/43/43 90/90/90
f 42/42/42 90/90/90 43/43/43
f 90/90/90 42/42/42 92/92/92
f 92/92/92 91/91/91 90/90/90
f 91/91/91 92/92/92 93/93/93
f 93/93/93 94/94/94 91/91/91
f 89/89/89 91/91/91 94/94/94
f 95/95/95 92/92/92 42/42/42
f 92/92/92 95/95/95 96/96/96
f 96/96/96 93/93/93 92/92/92
f 42/42/42 39/39/39 95/95/95
f 93/93/93 96/96/96 97/97/97
f 97/97/97 98/98/98 93/93/93
f 94/94/94 93/93/93 98/98/98
f 98/98/98 97/97/97 99/99/99
f 101/101/101 100/100/100 102/102/102
f 101/101/101 103/103/103 100/100/100
f 101/101/101 104/104/104 103/103/103
f 100/100/100 103/103/103 105/105/105
f 100/100/100 105/105/105 106/106/106
f 100/100/100 106/106/106 107/107/107
f 105/105/105 103/103/103 108/108/108
f 106/106/106 105/105/105 109/109/109
f 107/107/107 110/110/110 100/100/100
f 110/110/110 107/107/107 111/111/111
f 113/113/113 112/112/112 114/114/114
f 112/112/112 113/113/113 115/115/115
f 117/117/117 116/116/116 118/118/118
f 116/116/116 117/117/117 119/119/119
g Cylinder01__1_
v 0.3154779 1.545193 0.7056
v 0.2416705 1.633838 0.7056
v 0.2964518 1.59236 0.7056
v 0.0547821 1.681005 0.7056
v 0.1577389 1.664624 0.7056
v -0.1577389 1.664624 0.7056
v -0.05478228 1.681005 0.7056
v -0.2964518 1.59236 0.7056
v -0.2416705 1.633838 0.7056
v -0.3154779 1.545193 0.7056
v 0.3154779 1.162995 0.7056
v -0.3154779 1.162995 0.7056
v 0.3154779 1.545193 0.7056
v 0.2964518 1.59236 0.4255999
v 0.3154779 1.545193 0.4255999
v 0.2964518 1.59236 0.7056
v 0.2416705 1.633838 0.4255999
v 0.2964518 1.59236 0.1456
v 0.2416705 1.633838 0.1456
v 0.2416705 1.633838 0.7056
v 0.1577389 1.664624 0.4255999
v 0.1577389 1.664624 0.1456
v 0.1577389 1.664624 0.7056
v 0.0547821 1.681005 0.4255999
v 0.0547821 1.681005 0.1456
v 0.1577389 1.664624 -0.1344
v 0.0547821 1.681005 -0.1344
v -0.05478228 1.681005 0.1456
v -0.05478228 1.681005 -0.1344
v 0.0547821 1.681005 0.7056
v -0.05478228 1.681005 0.4255999
v -0.1577389 1.664624 0.1456
v -0.1577389 1.664624 -0.1344
v -0.05478228 1.681005 -0.4144
v -0.1577389 1.664624 -0.4144
v -0.2416705 1.633838 -0.1344
v -0.2416705 1.633838 -0.4144
v -0.1577389 1.664624 0.4255999
v -0.2416705 1.633838 0.1456
v -0.2964518 1.59236 -0.1344
v -0.2964518 1.59236 -0.4144
v -0.2416705 1.633838 -0.6943999
v -0.2964518 1.59236 -0.6943999
v -0.3154779 1.545193 -0.4144
v -0.3154779 1.545193 -0.6943999
v -0.2964518 1.59236 0.1456
v -0.3154779 1.545193 -0.1344
v -0.2416705 1.633838 0.4255999
v -0.2964518 1.59236 0.4255999
v -0.3154779 1.545193 0.1456
v -0.1577389 1.664624 0.7056
v -0.2416705 1.633838 0.7056
v -0.2964518 1.59236 0.7056
v -0.3154779 1.545193 0.4255999
v -0.3154779 1.545193 0.7056
v -0.05478228 1.681005 0.7056
v 0.3154779 1.162995 -0.6943999
v 0.3154779 1.162995 0.7056
v 0.3154779 1.545193 -0.6943999
v -0.1577389 1.664624 -0.6943999
v -0.05478228 1.681005 -0.6943999
v 0.0547821 1.681005 -0.4144
v 0.0547821 1.681005 -0.6943999
v 0.1577389 1.664624 -0.4144
v 0.1577389 1.664624 -0.6943999
v 0.2416705 1.633838 -0.1344
v 0.2416705 1.633838 -0.4144
v 0.2964518 1.59236 -0.1344
v 0.2964518 1.59236 -0.4144
v 0.2416705 1.633838 -0.6943999
v 0.3154779 1.545193 0.1456
v 0.3154779 1.545193 -0.1344
v 0.3154779 1.545193 -0.4144
v 0.2964518 1.59236 -0.6943999
v 0.3154779 1.545193 -0.6943999
v -0.3154779 1.545193 -0.6943999
v -0.2416705 1.633838 -0.6943999
v -0.2964518 1.59236 -0.6943999
v -0.05478228 1.681005 -0.6943999
v -0.1577389 1.664624 -0.6943999
v 0.1577389 1.664624 -0.6943999
v 0.2964518 1.59236 -0.6943999
v 0.3154779 1.545193 -0.6943999
v 0.0547821 1.681005 -0.6943999
v 0.2416705 1.633838 -0.6943999
v -0.3154779 1.162995 -0.6943999
v 0.3154779 1.162995 -0.6943999
v 0.3154779 1.162995 -0.6943999
v -0.3154779 1.162995 0.7056
v 0.3154779 1.162995 0.7056
v -0.3154779 1.162995 -0.6943999
v -0.3154779 1.545193 -0.6943999
v -0.3154779 1.162995 0.7056
v -0.3154779 1.162995 -0.6943999
v -0.3154779 1.545193 0.7056

vn 0 0 1
vn 0 0 1
vn 0 0 1
vn 0 0 1
vn 0 0 1
vn 0 0 1
vn 0 0 1
vn 0 0 1
vn 0 0 1
vn 0 0 1
vn 0 0 1
vn 0 0 1
vn 0.9961947 0.08715598 0
vn 0.9396926 0.3420199 0
vn 0.9848078 0.173648 0
vn 0.9180058 0.3965669 0
vn 0.7660441 0.6427881 0
vn 0.9396926 0.3420199 0
vn 0.7660441 0.6427881 0
vn 0.72701 0.6866269 0
vn 0.5000002 0.8660253 0
vn 0.5000002 0.8660253 0
vn 0.4483252 0.8938705 0
vn 0.173648 0.9848078 0
vn 0.173648 0.9848078 0
vn 0.5000002 0.8660253 0
vn 0.173648 0.9848078 0
vn -0.1736489 0.9848076 0
vn -0.1736489 0.9848076 0
vn 0.115565 0.9932998 0
vn -0.1736489 0.9848076 0
vn -0.5000002 0.8660253 0
vn -0.5000002 0.8660253 0
vn -0.1736489 0.9848076 0
vn -0.5000002 0.8660253 0
vn -0.7660441 0.6427881 0
vn -0.7660441 0.6427881 0
vn -0.5000002 0.8660253 0
vn -0.7660441 0.6427881 0
vn -0.9396926 0.3420199 0
vn -0.9396926 0.3420199 0
vn -0.72701 0.6866269 0
vn -0.9180058 0.3965669 0
vn -0.9848078 0.173648 0
vn -0.9848078 0.173648 0
vn -0.9396926 0.3420199 0
vn -0.9848078 0.173648 0
vn -0.7660441 0.6427881 0
vn -0.9396926 0.3420199 0
vn -0.9848078 0.173648 0
vn -0.5499521 0.8351962 0
vn -0.80244 0.5967329 0
vn -0.9581416 0.2862948 0
vn -0.9848078 0.173648 0
vn -0.9848078 0.173648 0
vn -0.2311321 0.9729224 0
vn 1 0 0
vn 1 0 0
vn 1 0 0
vn -0.4483248 0.8938707 0
vn -0.115567 0.9932997 0
vn 0.173648 0.9848078 0
vn 0.2311321 0.9729224 0
vn 0.5000002 0.8660253 0
vn 0.5499521 0.8351962 0
vn 0.7660441 0.6427881 0
vn 0.7660441 0.6427881 0
vn 0.9396926 0.3420199 0
vn 0.9396926 0.3420199 0
vn 0.80244 0.5967329 0
vn 0.9848078 0.173648 0
vn 0.9848078 0.173648 0
vn 0.9848078 0.173648 0
vn 0.9581416 0.2862948 0
vn 0.9848078 0.173648 0
vn 0 0 -1
vn 0 0 -1
vn 0 0 -1
vn 0 0 -1
vn 0 0 -1
vn 0 0 -1
vn 0 0 -1
vn 0 0 -1
vn 0 0 -1
vn 0 0 -1
vn 0 0 -1
vn 0 0 -1
vn 0 -1 0
vn 0 -1 0
vn 0 -1 0
vn 0 -1 0
vn -1 0 0
vn -1 0 0
vn -1 0 0
vn -1 0 0

vt 0 0
vt 0 0
vt 0 0
vt 0 0
vt 0 0
vt 0 0
vt 0 0
vt 0 0
vt 0 0
vt 0 0
vt 0 0
vt 0 0
vt 0 0
vt 0 0
vt 0 0
vt 0 0
vt 0 0
vt 0 0
vt 0 0
vt 0 0
vt 0 0
vt 0 0
vt 0 0
vt 0 0
vt 0 0
vt 0 0
vt 0 0
vt 0 0
vt 0 0
vt 0 0
vt 0 0
vt 0 0
vt 0 0
vt 0 0
vt 0 0
vt 0 0
vt 0 0
vt 0 0
vt 0 0
vt 0 0
vt 0 0
vt 0 0
vt 0 0
vt 0 0
vt 0 0
vt 0 0
vt 0 0
vt 0 0
vt 0 0
vt 0 0
vt 0 0
vt 0 0
vt 0 0
vt 0 0
vt 0 0
vt 0 0
vt 0 0
vt 0 0
vt 0 0
vt 0 0
vt 0 0
vt 0 0
vt 0 0
vt 0 0
vt 0 0
vt 0 0
vt 0 0
vt 0 0
vt 0 0
vt 0 0
vt 0 0
vt 0 0
vt 0 0
vt 0 0
vt 0 0
vt 0 0
vt 0 0
vt 0 0
vt 0 0
vt 0 0
vt 0 0
vt 0 0
vt 0 0
vt 0 0
vt 0 0
vt 0 0
vt 0 0
vt 0 0
vt 0 0
vt 0 0
vt 0 0
vt 0 0
vt 0 0
vt 0 0
vt 0 0

usemtl ridgeskin
usemap ridgeskin
f 121/121/121 120/120/120 122/122/122
f 121/121/121 123/123/123 120/120/120
f 121/121/121 124/124/124 123/123/123
f 120/120/120 123/123/123 125/125/125
f 125/125/125 123/123/123 126/126/126
f 120/120/120 125/125/125 127/127/127
f 127/127/127 125/125/125 128/128/128
f 120/120/120 127/127/127 129/129/129
f 129/129/129 130/130/130 120/120/120
f 130/130/130 129/129/129 131/131/131
f 133/133/133 132/132/132 134/134/134
f 132/132/132 133/133/133 135/135/135
f 136/136/136 135/135/135 133/133/133
f 134/134/134 137/137/137 133/133/133
f 138/138/138 133/133/133 137/137/137
f 133/133/133 138/138/138 136/136/136
f 135/135/135 136/136/136 139/139/139
f 140/140/140 139/139/139 136/136/136
f 141/141/141 136/136/136 138/138/138
f 136/136/136 141/141/141 140/140/140
f 139/139/139 140/140/140 142/142/142
f 143/143/143 142/142/142 140/140/140
f 144/144/144 140/140/140 141/141/141
f 140/140/140 144/144/144 143/143/143
f 138/138/138 145/145/145 141/141/141
f 146/146/146 141/141/141 145/145/145
f 141/141/141 146/146/146 144/144/144
f 147/147/147 143/143/143 144/144/144
f 148/148/148 144/144/144 146/146/146
f 144/144/144 148/148/148 147/147/147
f 142/142/142 143/143/143 149/149/149
f 150/150/150 149/149/149 143/143/143
f 143/143/143 147/147/147 150/150/150
f 151/151/151 150/150/150 147/147/147
f 152/152/152 147/147/147 148/148/148
f 147/147/147 152/152/152 151/151/151
f 146/146/146 153/153/153 148/148/148
f 154/154/154 148/148/148 153/153/153
f 148/148/148 154/154/154 152/152/152
f 155/155/155 151/151/151 152/152/152
f 156/156/156 152/152/152 154/154/154
f 152/152/152 156/156/156 155/155/155
f 150/150/150 151/151/151 157/157/157
f 158/158/158 157/157/157 151/151/151
f 151/151/151 155/155/155 158/158/158
f 159/159/159 158/158/158 155/155/155
f 160/160/160 155/155/155 156/156/156
f 155/155/155 160/160/160 159/159/159
f 154/154/154 161/161/161 156/156/156
f 162/162/162 156/156/156 161/161/161
f 156/156/156 162/162/162 160/160/160
f 163/163/163 159/159/159 160/160/160
f 164/164/164 160/160/160 162/162/162
f 160/160/160 164/164/164 163/163/163
f 158/158/158 159/159/159 165/165/165
f 166/166/166 165/165/165 159/159/159
f 159/159/159 163/163/163 166/166/166
f 165/165/165 167/167/167 158/158/158
f 157/157/157 158/158/158 167/167/167
f 167/167/167 165/165/165 168/168/168
f 169/169/169 168/168/168 165/165/165
f 165/165/165 166/166/166 169/169/169
f 167/167/167 170/170/170 157/157/157
f 170/170/170 167/167/167 171/171/171
f 168/168/168 171/171/171 167/167/167
f 171/171/171 168/168/168 172/172/172
f 173/173/173 172/172/172 168/168/168
f 168/168/168 169/169/169 173/173/173
f 172/172/172 173/173/173 174/174/174
f 175/175/175 157/157/157 170/170/170
f 157/157/157 175/175/175 150/150/150
f 149/149/149 150/150/150 175/175/175
f 176/176/176 132/132/132 177/177/177
f 132/132/132 176/176/176 178/178/178
f 161/161/161 154/154/154 179/179/179
f 153/153/153 179/179/179 154/154/154
f 179/179/179 153/153/153 180/180/180
f 181/181/181 180/180/180 153/153/153
f 153/153/153 146/146/146 181/181/181
f 180/180/180 181/181/181 182/182/182
f 145/145/145 181/181/181 146/146/146
f 181/181/181 145/145/145 183/183/183
f 183/183/183 182/182/182 181/181/181
f 182/182/182 183/183/183 184/184/184
f 185/185/185 183/183/183 145/145/145
f 183/183/183 185/185/185 186/186/186
f 186/186/186 184/184/184 183/183/183
f 145/145/145 138/138/138 185/185/185
f 137/137/137 185/185/185 138/138/138
f 185/185/185 137/137/137 187/187/187
f 187/187/187 186/186/186 185/185/185
f 186/186/186 187/187/187 188/188/188
f 188/188/188 189/189/189 186/186/186
f 184/184/184 186/186/186 189/189/189
f 190/190/190 187/187/187 137/137/137
f 187/187/187 190/190/190 191/191/191
f 191/191/191 188/188/188 187/187/187
f 137/137/137 134/134/134 190/190/190
f 188/188/188 191/191/191 192/192/192
f 192/192/192 193/193/193 188/188/188
f 189/189/189 188/188/188 193/193/193
f 193/193/193 192/192/192 194/194/194
f 196/196/196 195/195/195 197/197/197
f 196/196/196 198/198/198 195/195/195
f 196/196/196 199/199/199 198/198/198
f 195/195/195 198/198/198 200/200/200
f 195/195/195 200/200/200 201/201/201
f 195/195/195 201/201/201 202/202/202
f 200/200/200 198/198/198 203/203/203
f 201/201/201 200/200/200 204/204/204
f 202/202/202 205/205/205 195/195/195
f 205/205/205 202/202/202 206/206/206
f 208/208/208 207/207/207 209/209/209
f 207/207/207 208/208/208 210/210/210
f 212/212/212 211/211/211 213/213/213
f 211/211/211 212/212/212 214/214/214
