# Blender v2.79 (sub 0) OBJ File: 'window2.blend'
# www.blender.org
mtllib window4.mtl
o Cube_Cube.001
v -0.500000 -2.000000 2.000000
v -0.500000 2.000000 2.000000
v -0.500000 -2.000000 -2.000000
v -0.500000 2.000000 -2.000000
v 0.500000 -2.000000 2.000000
v 0.500000 2.000000 2.000000
v 0.500000 -2.000000 -2.000000
v 0.500000 2.000000 -2.000000
v 0.500000 1.000000 1.200000
v -0.500000 1.000000 1.200000
v 0.500000 1.600000 1.800000
v -0.500000 1.600000 1.800000
v 0.500000 1.000000 1.800000
v -0.500000 1.000000 1.800000
v 0.500000 1.600000 1.200000
v -0.500000 1.600000 1.200000
v 0.500000 1.000000 0.200000
v -0.500000 1.000000 0.200000
v 0.500000 1.600000 0.800000
v -0.500000 1.600000 0.800000
v 0.500000 1.000000 0.800000
v -0.500000 1.000000 0.800000
v 0.500000 1.600000 0.200000
v -0.500000 1.600000 0.200000
v 0.500000 1.000000 -0.800000
v -0.500000 1.000000 -0.800000
v 0.500000 1.600000 -0.200000
v 0.500000 1.521875 -0.200000
v -0.500000 1.600000 -0.200000
v 0.500000 1.000000 -0.200000
v -0.500000 1.000000 -0.200000
v 0.500000 1.600000 -0.800000
v -0.500000 1.600000 -0.800000
v 0.500000 1.000000 -1.800000
v -0.500000 1.000000 -1.800000
v 0.500000 1.600000 -1.200000
v -0.500000 1.600000 -1.200000
v 0.500000 1.000000 -1.200000
v -0.500000 1.000000 -1.200000
v 0.500000 1.600000 -1.800000
v -0.500000 1.600000 -1.800000
v 0.500000 -1.500000 1.200000
v -0.500000 -1.500000 1.200000
v 0.500000 0.500000 1.800000
v -0.500000 0.500000 1.800000
v 0.500000 -1.500000 1.800000
v -0.500000 -1.500000 1.800000
v 0.500000 0.500000 1.200000
v -0.500000 0.500000 1.200000
v 0.500000 -1.500000 0.200000
v -0.500000 -1.500000 0.200000
v 0.500000 0.500000 0.800000
v -0.500000 0.500000 0.800000
v 0.500000 -1.500000 0.800000
v -0.500000 -1.500000 0.800000
v 0.500000 0.500000 0.200000
v -0.500000 0.500000 0.200000
v 0.500000 -1.500000 -0.800000
v -0.500000 -1.500000 -0.800000
v 0.500000 0.500000 -0.200000
v -0.500000 0.500000 -0.200000
v 0.500000 -1.500000 -0.200000
v -0.500000 -1.500000 -0.200000
v 0.500000 0.500000 -0.800000
v -0.500000 0.500000 -0.800000
v 0.500000 -1.500000 -1.800000
v -0.500000 -1.500000 -1.800000
v 0.500000 0.500000 -1.200000
v -0.500000 0.500000 -1.200000
v 0.500000 -1.500000 -1.200000
v -0.500000 -1.500000 -1.200000
v 0.500000 0.500000 -1.800000
v -0.500000 0.500000 -1.800000
v 0.500000 -2.000000 2.000000
v 0.500000 2.000000 2.000000
v 0.500000 2.000000 2.000000
v 0.500000 2.000000 -2.000000
v 0.500000 1.000000 1.200000
v 0.500000 1.600000 1.200000
vn 0.0000 0.0000 -1.0000
vn 0.0000 0.0000 1.0000
vn 0.0000 -1.0000 0.0000
vn 0.0000 1.0000 0.0000
vn 1.0000 -0.0000 0.0000
vn -0.7071 -0.7071 0.0000
vn -1.0000 0.0000 0.0000
usemtl None
s off
f 3//1 4//1 8//1 7//1
f 5//2 6//2 2//2 1//2
f 3//3 7//3 5//3 1//3
f 8//4 4//4 2//4 6//4
f 10//2 9//2 15//2 16//2
f 16//3 15//3 11//3 12//3
f 14//4 13//4 9//4 10//4
f 13//1 14//1 12//1 11//1
f 18//2 17//2 23//2 24//2
f 24//3 23//3 19//3 20//3
f 22//4 21//4 17//4 18//4
f 21//1 22//1 20//1 19//1
f 26//2 25//2 32//2 33//2
f 33//3 32//3 27//3 29//3
f 31//4 30//4 25//4 26//4
f 30//1 31//1 29//1 27//1 28//1
f 35//2 34//2 40//2 41//2
f 41//3 40//3 36//3 37//3
f 39//4 38//4 34//4 35//4
f 38//1 39//1 37//1 36//1
f 43//2 42//2 48//2 49//2
f 49//3 48//3 44//3 45//3
f 47//4 46//4 42//4 43//4
f 46//1 47//1 45//1 44//1
f 51//2 50//2 56//2 57//2
f 57//3 56//3 52//3 53//3
f 55//4 54//4 50//4 51//4
f 54//1 55//1 53//1 52//1
f 59//2 58//2 64//2 65//2
f 65//3 64//3 60//3 61//3
f 63//4 62//4 58//4 59//4
f 62//1 63//1 61//1 60//1
f 73//3 72//3 68//3 69//3
f 71//4 70//4 66//4 67//4
f 70//1 71//1 69//1 68//1
f 67//2 66//2 72//2 73//2
f 6//2 5//2 74//2 75//2
f 8//2 6//2 76//2 77//2
f 15//2 9//2 78//2 79//2
f 21//5 19//5 79//5 78//5
f 27//5 23//5 17//5 30//5
f 25//5 38//5 36//5 32//5
f 58//5 70//5 68//5 64//5
f 56//5 50//5 62//5 60//5
f 42//5 54//5 52//5 48//5
f 9//6 13//6 25//6 30//6 17//6 21//6 78//6
f 38//5 25//5 13//5 44//5 48//5 52//5 56//5 60//5 64//5 68//5 72//5 34//5
f 33//7 37//7 39//7 26//7
f 24//7 29//7 31//7 18//7
f 10//7 16//7 20//7 22//7
f 49//7 53//7 55//7 43//7
f 57//7 61//7 63//7 51//7
f 65//7 69//7 71//7 59//7
f 10//7 22//7 18//7 31//7 26//7 39//7 35//7 73//7 69//7 65//7 61//7 57//7 53//7 49//7 45//7 14//7
f 76//5 11//5 40//5 77//5
f 66//5 7//5 77//5 40//5
f 7//5 66//5 46//5 74//5
f 11//5 76//5 74//5 46//5
f 12//7 2//7 4//7 41//7
f 4//7 3//7 67//7 41//7
f 3//7 1//7 47//7 67//7
f 1//7 2//7 12//7 47//7
