# Blender v2.79 (sub 0) OBJ File: ''
# www.blender.org
mtllib window.mtl
o Cube.005
v 0.510313 1.679859 0.201875
v 0.561511 1.679860 0.201875
v 0.523995 1.679859 0.238078
v 0.510313 1.679859 0.228403
v 0.547829 1.679860 0.238078
v 0.561510 1.679859 0.228403
v -0.489688 1.679859 0.201875
v -0.438490 1.679860 0.201875
v -0.476004 1.679859 0.238078
v -0.489688 1.679859 0.228403
v -0.452172 1.679859 0.238078
v -0.438490 1.679860 0.228403
v -0.510312 1.679859 0.201875
v -0.561510 1.679859 0.201875
v -0.523995 1.679859 0.238078
v -0.510312 1.679859 0.228403
v -0.547829 1.679859 0.238078
v -0.561510 1.679859 0.228403
v 0.489688 1.679859 0.201875
v 0.438490 1.679859 0.201875
v 0.476004 1.679859 0.238078
v 0.489688 1.679859 0.228403
v 0.452172 1.679859 0.238078
v 0.438490 1.679859 0.228403
v -0.843818 -1.687953 0.238077
v -0.844592 -1.726243 0.228402
v -0.843818 -0.687954 0.238077
v -0.844592 -0.726243 0.228402
v -0.843818 0.312046 0.238078
v -0.844592 0.273757 0.228403
v -0.843818 1.312046 0.238078
v -0.844592 1.273757 0.228403
v -0.846715 0.322831 0.201875
v -0.846715 0.271634 0.201875
v -0.844592 0.324954 0.228403
v -0.843818 0.288213 0.238078
v -0.846715 1.322832 0.201875
v -0.846715 1.271634 0.201875
v -0.844592 1.324955 0.228403
v -0.843818 1.288213 0.238078
v -0.843818 -1.000318 0.238077
v -0.844592 -1.037059 0.228402
v -0.843818 -0.000319 0.238077
v -0.844592 -0.037059 0.228402
v -0.843818 0.999682 0.238077
v -0.844592 0.962940 0.228402
v -0.846715 -0.983738 0.201874
v -0.846715 -1.034937 0.201874
v -0.844592 -0.985861 0.228402
v -0.843818 -1.024152 0.238077
v -0.846715 0.016261 0.201875
v -0.846715 -0.034936 0.201875
v -0.844592 0.014138 0.228402
v -0.843818 -0.024152 0.238077
v -0.846715 1.016262 0.201875
v -0.846715 0.965063 0.201875
v -0.844592 1.014139 0.228402
v -0.843818 0.975848 0.238077
v -0.846716 -1.677168 0.201875
v -0.846715 -1.728366 0.201875
v -0.844592 -1.675045 0.228402
v -0.843818 -1.711787 0.238077
v -0.846715 -0.677168 0.201875
v -0.846715 -0.728366 0.201875
v -0.844592 -0.675045 0.228402
v -0.843818 -0.711787 0.238077
v 0.041801 -1.872255 0.201874
v -0.009130 -1.872521 0.201874
v 0.027765 -1.858218 0.228402
v -0.014675 -1.853294 0.238077
v -0.042242 -1.872695 0.201874
v 0.009225 -1.872425 0.201874
v -0.028058 -1.858510 0.228402
v 0.014829 -1.853140 0.238077
v -0.009129 -1.853265 0.238077
v 0.023410 -1.858241 0.228402
v 0.009035 -1.853170 0.238077
v -0.023167 -1.858485 0.228402
v 0.707286 1.863149 0.238078
v 0.745001 1.863350 0.228403
v -0.298061 1.857802 0.238078
v -0.260346 1.858003 0.228403
v -0.686191 1.855738 0.201875
v -0.737117 1.855466 0.201875
v -0.686190 1.855738 0.228403
v -0.723508 1.855539 0.238078
v 0.308519 1.861029 0.201875
v 0.257591 1.860757 0.201875
v 0.308519 1.861029 0.228403
v 0.271201 1.860830 0.238078
v 0.693530 1.863077 0.201875
v 0.745001 1.863350 0.201875
v 0.693530 1.863077 0.228403
v 0.731247 1.863277 0.238078
v -0.311818 1.857728 0.201875
v -0.260346 1.858003 0.201875
v -0.311818 1.857728 0.228403
v -0.274101 1.857930 0.238078
v -0.699801 1.855665 0.238078
v 0.294907 1.860956 0.238078
v 0.257591 1.860757 0.228403
v -0.737117 1.855466 0.228403
v 0.889592 0.266272 0.238078
v 0.889592 0.228757 0.228403
v 0.889592 1.266271 0.238078
v 0.889592 1.228757 0.228403
v 0.889592 0.045457 0.238077
v 0.889592 0.007941 0.228402
v 0.889592 1.045456 0.238077
v 0.889592 1.007941 0.228402
v 0.889592 -1.733729 0.238077
v 0.889592 -1.771243 0.228402
v 0.889592 -0.733727 0.238077
v 0.889592 -0.771244 0.228402
v 0.889592 -0.954544 0.238077
v 0.889592 -0.992059 0.228402
v 0.889592 -1.720046 0.201875
v 0.889592 -0.720046 0.201875
v 0.889592 -0.771244 0.201875
v 0.889592 -0.720046 0.228402
v 0.889592 -0.757562 0.238077
v 0.889592 0.279955 0.201875
v 0.889592 0.228757 0.201875
v 0.889592 0.279955 0.228403
v 0.889592 0.242438 0.238078
v 0.889592 1.279955 0.201875
v 0.889592 1.228757 0.201875
v 0.889592 1.279955 0.228403
v 0.889592 1.242438 0.238078
v 0.889592 -0.940861 0.201874
v 0.889592 -0.992058 0.201874
v 0.889592 -0.940861 0.228402
v 0.889592 -0.978377 0.238077
v 0.889592 0.059140 0.201875
v 0.889592 0.007940 0.201875
v 0.889592 0.059140 0.228402
v 0.889592 0.021622 0.238077
v 0.889592 1.059139 0.201875
v 0.889592 1.007941 0.201875
v 0.889592 1.059139 0.228402
v 0.889592 1.021622 0.238077
v 0.889592 -1.771243 0.201875
v 0.889592 -1.720046 0.228402
v 0.889592 -1.757562 0.238077
vn -0.5000 -0.5000 0.7071
vn 0.0000 0.0000 1.0000
vn 0.5000 0.5000 0.7071
vn -0.7071 -0.7071 0.0000
vn 0.7071 0.7071 0.0000
vn 0.5000 -0.5000 0.7071
vn -0.5000 0.5000 0.7071
vn 0.7071 -0.7071 0.0000
vn -0.7071 0.7071 0.0000
usemtl None
s off
f 90//1 101//1 24//1 23//1
f 129//2 105//2 21//2 23//2
f 105//3 128//3 22//3 21//3
f 127//4 106//4 24//4 20//4
f 128//5 126//5 19//5 22//5
f 86//1 102//1 18//1 17//1
f 125//2 103//2 15//2 17//2
f 103//3 124//3 16//3 15//3
f 123//4 104//4 18//4 14//4
f 124//5 122//5 13//5 16//5
f 40//6 32//6 12//6 11//6
f 98//2 81//2 9//2 11//2
f 81//7 97//7 10//7 9//7
f 96//8 82//8 12//8 8//8
f 97//9 95//9 7//9 10//9
f 36//6 30//6 6//6 5//6
f 94//2 79//2 3//2 5//2
f 79//7 93//7 4//7 3//7
f 92//8 80//8 6//8 2//8
f 93//9 91//9 1//9 4//9
f 140//9 138//9 63//9 65//9
f 136//9 134//9 59//9 61//9
f 120//5 118//5 55//5 57//5
f 143//5 117//5 51//5 53//5
f 69//5 67//5 47//5 49//5
f 119//4 114//4 46//4 56//4
f 121//2 113//2 45//2 58//2
f 113//3 120//3 57//3 45//3
f 142//4 112//4 44//4 52//4
f 144//2 111//2 43//2 54//2
f 111//3 143//3 53//3 43//3
f 68//4 78//4 42//4 48//4
f 70//2 77//2 41//2 50//2
f 77//3 69//3 49//3 41//3
f 10//9 7//9 37//9 39//9
f 4//9 1//9 33//9 35//9
f 8//8 12//8 32//8 38//8
f 11//2 9//2 31//2 40//2
f 9//7 10//7 39//7 31//7
f 2//8 6//8 30//8 34//8
f 5//2 3//2 29//2 36//2
f 3//7 4//7 35//7 29//7
f 139//8 110//8 28//8 64//8
f 141//2 109//2 27//2 66//2
f 109//7 140//7 65//7 27//7
f 135//8 108//8 26//8 60//8
f 137//2 107//2 25//2 62//2
f 107//7 136//7 61//7 25//7
f 133//2 115//2 75//2 74//2
f 115//7 132//7 73//7 75//7
f 131//8 116//8 76//8 72//8
f 132//9 130//9 71//9 73//9
f 50//1 42//1 78//1 70//1
f 23//2 21//2 100//2 90//2
f 21//3 22//3 89//3 100//3
f 20//4 24//4 101//4 88//4
f 22//5 19//5 87//5 89//5
f 17//2 15//2 99//2 86//2
f 15//3 16//3 85//3 99//3
f 14//4 18//4 102//4 84//4
f 16//5 13//5 83//5 85//5
f 11//6 12//6 82//6 98//6
f 5//6 6//6 80//6 94//6
f 74//6 76//6 116//6 133//6
f 58//1 46//1 114//1 121//1
f 54//1 44//1 112//1 144//1
f 66//6 28//6 110//6 141//6
f 62//6 26//6 108//6 137//6
f 23//1 24//1 106//1 129//1
f 17//1 18//1 104//1 125//1
o Cube
v 1.000000 -2.000000 -0.300000
v 1.000000 -2.000000 0.300000
v -1.000000 -2.000000 0.300000
v -1.000000 -2.000000 -0.300000
v 1.000000 2.000000 -0.300000
v 0.999999 2.000000 0.300000
v -1.000000 2.000000 0.300000
v -1.000000 2.000000 -0.300000
v 0.860455 -1.860673 0.300000
v -0.860455 -1.860673 0.300000
v 0.860454 1.860673 0.300000
v -0.860455 1.860673 0.300000
v 0.860455 -1.860673 0.300000
v -0.860455 -1.860673 0.300000
v 0.860454 1.860673 0.300000
v -0.860455 1.860673 0.300000
v 0.860455 -1.860673 0.300000
v -0.860455 -1.860673 0.300000
v 0.860454 1.860673 0.300000
v -0.860455 1.860673 0.300000
v 0.860455 -1.860673 0.300000
v -0.860455 -1.860673 0.300000
v 0.860454 1.860673 0.300000
v -0.860455 1.860673 0.300000
v 0.860455 -1.860673 0.300000
v -0.860455 -1.860673 0.300000
v 0.860454 1.860673 0.300000
v -0.860455 1.860673 0.300000
v 0.860455 -1.860673 0.066554
v -0.860455 -1.860673 0.066554
v 0.860454 1.860673 0.066554
v -0.860455 1.860673 0.066554
vn 0.0000 -1.0000 0.0000
vn 0.0000 1.0000 0.0000
vn 1.0000 0.0000 0.0000
vn -0.0000 0.0000 1.0000
vn -1.0000 -0.0000 -0.0000
vn 0.0000 0.0000 -1.0000
usemtl Material
s off
f 145//10 146//10 147//10 148//10
f 149//11 152//11 151//11 150//11
f 145//12 149//12 150//12 146//12
f 150//13 151//13 156//13 155//13
f 147//14 151//14 152//14 148//14
f 149//15 145//15 148//15 152//15
f 154//13 153//13 157//13 158//13
f 151//13 147//13 154//13 156//13
f 146//13 150//13 155//13 153//13
f 147//13 146//13 153//13 154//13
f 159//13 160//13 164//13 163//13
f 155//13 156//13 160//13 159//13
f 153//13 155//13 159//13 157//13
f 156//13 154//13 158//13 160//13
f 164//13 162//13 166//13 168//13
f 157//13 159//13 163//13 161//13
f 160//13 158//13 162//13 164//13
f 158//13 157//13 161//13 162//13
f 167//13 168//13 172//13 171//13
f 162//13 161//13 165//13 166//13
f 163//13 164//13 168//13 167//13
f 161//13 163//13 167//13 165//13
f 169//14 171//14 175//14 173//14
f 165//13 167//13 171//13 169//13
f 168//13 166//13 170//13 172//13
f 166//13 165//13 169//13 170//13
f 173//13 175//13 176//13 174//13
f 172//12 170//12 174//12 176//12
f 170//11 169//11 173//11 174//11
f 171//10 172//10 176//10 175//10
