# Blender v2.79 (sub 0) OBJ File: 'window4.blend'
# www.blender.org
mtllib window5.mtl
o Cylinder_Cylinder.002
v -0.500000 -2.000000 2.000000
v -0.500000 2.000000 2.000000
v -0.500000 -2.000000 -2.000000
v -0.500000 2.000000 -2.000000
v 0.500000 -2.000000 2.000000
v 0.500000 2.000000 2.000000
v 0.500000 -2.000000 -2.000000
v 0.500000 2.000000 -2.000000
v 0.500000 1.300000 -1.200000
v -0.500000 1.300000 -1.200000
v 0.500000 1.300000 -1.800000
v -0.500000 1.300000 -1.800000
v 0.500000 1.900000 -1.200000
v -0.500000 1.900000 -1.200000
v 0.500000 1.900000 -1.800000
v -0.500000 1.900000 -1.800000
v -0.500000 1.300000 -0.200000
v 0.500000 1.300000 -0.200000
v -0.500000 1.300000 -0.800000
v 0.500000 1.300000 -0.800000
v -0.500000 1.900000 -0.200000
v 0.500000 1.900000 -0.200000
v -0.500000 1.900000 -0.800000
v 0.500000 1.900000 -0.800000
v -0.500000 1.300000 0.800000
v 0.500000 1.300000 0.800000
v -0.500000 1.300000 0.200000
v 0.500000 1.300000 0.200000
v -0.500000 1.900000 0.800000
v 0.500000 1.900000 0.800000
v -0.500000 1.900000 0.200000
v 0.500000 1.900000 0.200000
v -0.500000 1.300000 1.800000
v 0.500000 1.300000 1.800000
v -0.500000 1.300000 1.200000
v 0.500000 1.300000 1.200000
v -0.500000 1.900000 1.800000
v 0.500000 1.900000 1.800000
v -0.500000 1.900000 1.200000
v 0.500000 1.900000 1.200000
v 0.500000 -1.700000 -1.200000
v -0.500000 -1.700000 -1.200000
v 0.500000 -1.700000 -1.800000
v -0.500000 -1.700000 -1.800000
v 0.500000 0.900000 -1.200000
v -0.500000 0.900000 -1.200000
v 0.500000 0.900000 -1.800000
v -0.500000 0.900000 -1.800000
v 0.500000 -1.700000 -0.200000
v -0.500000 -1.700000 -0.200000
v 0.500000 -1.700000 -0.800000
v -0.500000 -1.700000 -0.800000
v 0.500000 0.900000 -0.200000
v -0.500000 0.900000 -0.200000
v 0.500000 0.900000 -0.800000
v -0.500000 0.900000 -0.800000
v -0.500000 -1.700000 0.800000
v 0.500000 -1.700000 0.800000
v -0.500000 -1.700000 0.200000
v 0.500000 -1.700000 0.200000
v 0.500000 0.900000 0.800000
v -0.500000 0.900000 0.800000
v 0.500000 0.900000 0.200000
v -0.500000 0.900000 0.200000
v 0.500000 -1.700000 1.800000
v -0.500000 -1.700000 1.800000
v 0.500000 -1.700000 1.200000
v -0.500000 -1.700000 1.200000
v 0.500000 0.900000 1.800000
v -0.500000 0.900000 1.800000
v 0.500000 0.900000 1.200000
v -0.500000 0.900000 1.200000
v -0.500000 2.000000 -1.800000
v 0.500000 2.000000 -1.800000
v -0.500000 2.000001 1.800000
v 0.500000 2.000000 1.800000
v -0.500000 2.351163 1.765413
v 0.500000 2.351163 1.765413
v -0.500000 2.688831 1.662983
v 0.500000 2.688831 1.662983
v -0.500000 3.000027 1.496645
v 0.500000 3.000027 1.496645
v -0.500000 3.272793 1.272791
v 0.500000 3.272793 1.272791
v -0.500000 3.496646 1.000025
v 0.500000 3.496646 1.000025
v -0.500000 3.662984 0.688829
v 0.500000 3.662984 0.688829
v -0.500000 3.765414 0.351161
v 0.500000 3.765414 0.351161
v -0.500000 3.800000 -0.000002
v 0.500000 3.800000 -0.000002
v -0.500000 3.765413 -0.351164
v 0.500000 3.765413 -0.351164
v -0.500000 3.662982 -0.688832
v 0.500000 3.662982 -0.688832
v -0.500000 3.496644 -1.000028
v 0.500000 3.496644 -1.000028
v -0.500000 3.272790 -1.272794
v 0.500000 3.272790 -1.272794
v -0.500000 3.000024 -1.496647
v 0.500000 3.000024 -1.496647
v -0.500000 2.688828 -1.662984
v 0.500000 2.688828 -1.662984
v -0.500000 2.351160 -1.765414
v 0.500000 2.351160 -1.765414
v 0.500000 2.900000 0.800000
v -0.500000 2.900000 0.800000
v 0.500000 2.900000 0.200000
v -0.500000 2.900000 0.200000
v 0.500000 3.500000 0.800000
v -0.500000 3.500000 0.800000
v 0.500000 3.500000 0.200000
v -0.500000 3.500000 0.200000
v 0.500000 2.900000 -0.200000
v -0.500000 2.900000 -0.200000
v 0.500000 2.900000 -0.800000
v -0.500000 2.900000 -0.800000
v 0.500000 3.500000 -0.200000
v -0.500000 3.500000 -0.200000
v 0.500000 3.500000 -0.800000
v -0.500000 3.500000 -0.800000
v 0.500000 2.200000 1.500000
v -0.500000 2.200000 1.500000
v 0.500000 2.200000 0.900000
v -0.500000 2.200000 0.900000
v 0.500000 2.800000 1.500000
v -0.500000 2.800000 1.500000
v 0.500000 2.800000 0.900000
v -0.500000 2.800000 0.900000
v 0.500000 2.200000 0.300000
v -0.500000 2.200000 0.300000
v 0.500000 2.200000 -0.300000
v -0.500000 2.200000 -0.300000
v 0.500000 2.800000 0.300000
v -0.500000 2.800000 0.300000
v 0.500000 2.800000 -0.300000
v -0.500000 2.800000 -0.300000
v 0.500000 2.200000 -0.900000
v -0.500000 2.200000 -0.900000
v 0.500000 2.200000 -1.500000
v -0.500000 2.200000 -1.500000
v 0.500000 2.800000 -0.900000
v -0.500000 2.800000 -0.900000
v 0.500000 2.800000 -1.500000
v -0.500000 2.800000 -1.500000
v 0.450000 2.000000 1.800000
v -0.450000 2.000000 -1.800000
v -0.450000 2.000000 -1.800000
v -0.500000 2.000000 -1.800000
v 0.450000 2.000000 1.800000
v 0.500000 2.000000 1.800000
vn 0.0000 0.0000 1.0000
vn 0.0000 0.0000 -1.0000
vn 1.0000 0.0000 0.0000
vn 0.0000 -1.0000 0.0000
vn 0.0000 1.0000 0.0000
vn 0.0000 0.0980 0.9952
vn 0.0000 0.2903 0.9569
vn 0.0000 0.4714 0.8819
vn 0.0000 0.6344 0.7730
vn 0.0000 0.7730 0.6344
vn 0.0000 0.8819 0.4714
vn 0.0000 0.9569 0.2903
vn 0.0000 0.9952 0.0980
vn 0.0000 0.9952 -0.0980
vn 0.0000 0.9569 -0.2903
vn 0.0000 0.8819 -0.4714
vn 0.0000 0.7730 -0.6344
vn 0.0000 0.6344 -0.7730
vn 0.0000 0.4714 -0.8819
vn 0.0000 0.2903 -0.9569
vn 0.0000 0.0980 -0.9952
vn -1.0000 0.0000 0.0000
usemtl None
s off
f 60//1 63//1 64//1 59//1
f 3//2 4//2 8//2 7//2
f 7//3 8//3 47//3 43//3 41//3 5//3
f 5//1 6//1 2//1 1//1
f 3//4 7//4 5//4 1//4
f 8//5 4//5 150//5 75//5 73//5 148//5 74//5
f 12//1 11//1 15//1 16//1
f 10//5 9//5 11//5 12//5
f 13//4 14//4 16//4 15//4
f 9//2 10//2 14//2 13//2
f 32//1 31//1 27//1 28//1
f 17//5 18//5 20//5 19//5
f 22//4 21//4 23//4 24//4
f 17//2 21//2 22//2 18//2
f 20//1 24//1 23//1 19//1
f 25//5 26//5 28//5 27//5
f 30//4 29//4 31//4 32//4
f 30//2 26//2 25//2 29//2
f 33//5 34//5 36//5 35//5
f 39//4 40//4 38//4 37//4
f 34//2 33//2 37//2 38//2
f 44//1 43//1 47//1 48//1
f 42//5 41//5 43//5 44//5
f 45//4 46//4 48//4 47//4
f 41//2 42//2 46//2 45//2
f 51//1 55//1 56//1 52//1
f 39//1 35//1 36//1 40//1
f 50//5 49//5 51//5 52//5
f 53//4 54//4 56//4 55//4
f 53//2 49//2 50//2 54//2
f 57//5 58//5 60//5 59//5
f 61//4 62//4 64//4 63//4
f 58//2 57//2 62//2 61//2
f 68//1 67//1 71//1 72//1
f 66//5 65//5 67//5 68//5
f 69//4 70//4 72//4 71//4
f 65//2 66//2 70//2 69//2
f 75//6 151//6 76//6 78//6 77//6
f 77//7 78//7 80//7 79//7
f 79//8 80//8 82//8 81//8
f 81//9 82//9 84//9 83//9
f 83//10 84//10 86//10 85//10
f 85//11 86//11 88//11 87//11
f 87//12 88//12 90//12 89//12
f 89//13 90//13 92//13 91//13
f 91//14 92//14 94//14 93//14
f 93//15 94//15 96//15 95//15
f 95//16 96//16 98//16 97//16
f 97//17 98//17 100//17 99//17
f 99//18 100//18 102//18 101//18
f 101//19 102//19 104//19 103//19
f 103//20 104//20 106//20 105//20
f 105//21 106//21 74//21 149//21 73//21
f 129//4 127//4 128//4 130//4
f 73//4 149//4 74//4 76//4 151//4 75//4
f 113//3 109//3 115//3 119//3
f 96//3 94//3 119//3 121//3 98//3
f 110//1 109//1 113//1 114//1
f 75//22 77//22 79//22 128//22 124//22
f 108//5 107//5 109//5 110//5
f 111//4 112//4 114//4 113//4
f 107//2 108//2 112//2 111//2
f 90//3 88//3 111//3 113//3 92//3
f 118//1 117//1 121//1 122//1
f 87//22 89//22 114//22 112//22 85//22
f 116//5 115//5 117//5 118//5
f 119//4 120//4 122//4 121//4
f 115//2 116//2 120//2 119//2
f 125//5 126//5 124//5 123//5
f 125//1 129//1 130//1 126//1
f 127//2 123//2 124//2 128//2
f 144//4 146//4 145//4 143//4
f 134//1 133//1 137//1 138//1
f 81//22 128//22 79//22
f 132//5 131//5 133//5 134//5
f 135//4 136//4 138//4 137//4
f 131//2 132//2 136//2 135//2
f 141//1 145//1 146//1 142//1
f 143//2 139//2 140//2 144//2
f 92//3 113//3 119//3 94//3
f 142//5 140//5 139//5 141//5
f 98//3 121//3 117//3 100//3
f 102//3 100//3 117//3 143//3 145//3
f 102//3 145//3 104//3
f 106//3 104//3 145//3 141//3 74//3
f 117//3 115//3 137//3 143//3
f 88//3 86//3 111//3
f 137//3 115//3 109//3 135//3
f 84//3 82//3 127//3 129//3 107//3 111//3 86//3
f 107//3 129//3 135//3 109//3
f 76//3 123//3 127//3 82//3 80//3 78//3
f 129//3 125//3 131//3 135//3
f 133//3 139//3 143//3 137//3
f 133//3 131//3 125//3 123//3 76//3 74//3 141//3
f 91//22 93//22 120//22 114//22 89//22
f 95//22 122//22 120//22 93//22
f 95//22 97//22 122//22
f 81//22 83//22 85//22 112//22 108//22 130//22 128//22
f 99//22 101//22 146//22 144//22 118//22 122//22 97//22
f 103//22 146//22 101//22
f 103//22 105//22 73//22 142//22 146//22
f 118//22 144//22 138//22 116//22
f 138//22 136//22 110//22 116//22
f 114//22 120//22 116//22 110//22
f 110//22 136//22 130//22 108//22
f 126//22 130//22 136//22 132//22
f 138//22 144//22 140//22 134//22
f 73//22 75//22 124//22 126//22 132//22 134//22 140//22 142//22
f 74//5 148//5 73//5 75//5 147//5 76//5
f 76//5 147//5 75//5 2//5 6//5 152//5 74//5
f 35//22 39//22 29//22 25//22
f 21//22 17//22 27//22 31//22
f 14//22 10//22 19//22 23//22
f 10//22 12//22 48//22 46//22 33//22 35//22 25//22 27//22 17//22 19//22
f 56//1 54//1 64//1 62//1
f 72//22 70//22 33//22 46//22
f 21//1 31//1 29//1 39//1 37//1 23//1
f 39//3 29//3 31//3 150//3 75//3 2//3 37//3
f 150//22 4//22 16//22 14//22 23//22 31//22
f 3//22 44//22 48//22 12//22 16//22 4//22
f 2//22 37//22 33//22 70//22 66//22 1//22
f 42//22 52//22 56//22 46//22
f 50//22 59//22 64//22 54//22
f 57//22 68//22 72//22 62//22
f 150//22 31//22 37//22 2//22
f 1//22 66//22 68//22 57//22 59//22 50//22 52//22 42//22 44//22 3//22
f 8//3 74//3 15//3
f 152//3 6//3 38//3
f 13//3 15//3 74//3 152//3 38//3 40//3 22//3 24//3
f 15//3 11//3 47//3 8//3
f 9//3 18//3 20//3 45//3 47//3 11//3
f 45//3 20//3 18//3 28//3 26//3 36//3 34//3 69//3 71//3 61//3 63//3 53//3 55//3
f 13//3 24//3 20//3 9//3
f 28//3 18//3 22//3 32//3
f 30//3 40//3 36//3 26//3
f 41//3 45//3 55//3 51//3
f 49//3 53//3 63//3 60//3
f 58//3 61//3 71//3 67//3
f 5//3 41//3 51//3 49//3 60//3 58//3 65//3
f 6//3 5//3 65//3 38//3
l 18 26
l 45 28
